<svg width="215" height="68" viewBox="0 0 215 68" fill="none"
     xmlns="http://www.w3.org/2000/svg">
  <path fill-rule="evenodd" clip-rule="evenodd"
        d="M84.535 0.671304C86.8996 -0.880678 89.6141 2.07781 87.8648 4.30044L79.4556 14.9851C78.6876 15.9611 77.3187 16.2235 76.2441 15.601L72.0638 13.1792C70.4577 12.2487 70.3937 9.95269 71.9455 8.93418L84.535 0.671304ZM54.7356 7.32715C53.6908 6.94198 52.5169 7.21932 51.7549 8.03137L0.756164 62.3821C-0.904981 64.1524 0.350243 67.0515 2.77789 67.0515H38.9446C40.0112 67.0515 40.9833 66.4396 41.4445 65.4779L65.8194 14.6451C66.5259 13.1719 65.8115 11.4103 64.2785 10.8452L54.7356 7.32715ZM67.2999 16.4055C67.9457 14.4018 70.5012 13.8206 71.95 15.348L87.2151 31.4413C88.066 32.3383 88.22 33.6905 87.5927 34.7559L84.4582 40.0792C83.6842 41.3937 81.9937 41.836 80.6752 41.069L64.6469 31.7453C63.5204 31.0901 63.0024 29.7387 63.4022 28.4984L67.2999 16.4055ZM133.438 23.0879C132.737 23.0879 132.149 22.8697 131.674 22.4335C131.219 21.9782 130.992 21.4187 130.992 20.7548C130.992 20.091 131.219 19.5409 131.674 19.1046C132.149 18.6494 132.737 18.4218 133.438 18.4218C134.14 18.4218 134.719 18.6494 135.174 19.1046C135.648 19.5409 135.885 20.091 135.885 20.7548C135.885 21.4187 135.648 21.9782 135.174 22.4335C134.719 22.8697 134.14 23.0879 133.438 23.0879ZM135.402 24.9657V40.7278H131.418V24.9657H135.402ZM99.2567 33.1597V20.8686H95.2735V33.1313C95.2735 34.8194 95.6244 36.2514 96.3262 37.4274C97.028 38.5845 97.9764 39.457 99.1714 40.045C100.385 40.633 101.732 40.927 103.212 40.927C104.71 40.927 106.066 40.633 107.28 40.045C108.513 39.457 109.49 38.5845 110.211 37.4274C110.95 36.2514 111.32 34.8194 111.32 33.1313V20.8686H107.309V33.1597C107.309 34.5064 106.958 35.5402 106.256 36.2609C105.554 36.9627 104.558 37.3136 103.268 37.3136C101.998 37.3136 101.011 36.9627 100.309 36.2609C99.6076 35.5402 99.2567 34.5064 99.2567 33.1597ZM127.175 26.5305C126.018 25.3355 124.501 24.738 122.623 24.738C121.637 24.738 120.726 24.9372 119.892 25.3355C119.076 25.7149 118.403 26.246 117.872 26.9288V24.9657H113.888V40.7278H117.872V32.0216C117.872 30.7698 118.185 29.8119 118.811 29.148C119.455 28.4652 120.328 28.1238 121.428 28.1238C122.509 28.1238 123.363 28.4652 123.989 29.148C124.615 29.8119 124.928 30.7698 124.928 32.0216V40.7278H128.911V31.4811C128.911 29.3567 128.332 27.7065 127.175 26.5305ZM138.028 28.579C137.364 29.7929 137.032 31.2155 137.032 32.8467C137.032 34.478 137.364 35.91 138.028 37.1429C138.692 38.3569 139.612 39.3052 140.788 39.9881C141.964 40.652 143.311 40.9839 144.828 40.9839C146.763 40.9839 148.375 40.4812 149.665 39.476C150.955 38.4707 151.818 37.1145 152.254 35.4074H147.958C147.465 36.8489 146.412 37.5697 144.8 37.5697C143.662 37.5697 142.761 37.1619 142.097 36.3463C141.433 35.5117 141.101 34.3452 141.101 32.8467C141.101 31.3293 141.433 30.1628 142.097 29.3472C142.761 28.5126 143.662 28.0953 144.8 28.0953C145.596 28.0953 146.26 28.2945 146.791 28.6928C147.341 29.0722 147.73 29.6033 147.958 30.2861H152.254C151.818 28.5221 150.955 27.1564 149.665 26.1891C148.394 25.2028 146.782 24.7096 144.828 24.7096C143.311 24.7096 141.964 25.051 140.788 25.7338C139.612 26.3977 138.692 27.3461 138.028 28.579ZM160.891 40.9839C159.373 40.9839 158.008 40.652 156.794 39.9881C155.58 39.3052 154.622 38.3474 153.92 37.1145C153.237 35.8816 152.896 34.459 152.896 32.8467C152.896 31.2345 153.247 29.8119 153.949 28.579C154.669 27.3461 155.646 26.3977 156.879 25.7338C158.112 25.051 159.487 24.7096 161.005 24.7096C162.522 24.7096 163.897 25.051 165.13 25.7338C166.363 26.3977 167.33 27.3461 168.032 28.579C168.753 29.8119 169.113 31.2345 169.113 32.8467C169.113 34.459 168.743 35.8816 168.004 37.1145C167.283 38.3474 166.297 39.3052 165.045 39.9881C163.812 40.652 162.427 40.9839 160.891 40.9839ZM160.891 37.5128C161.612 37.5128 162.285 37.3421 162.911 37.0007C163.556 36.6403 164.068 36.1092 164.447 35.4074C164.827 34.7056 165.016 33.852 165.016 32.8467C165.016 31.3483 164.618 30.2007 163.821 29.4041C163.044 28.5885 162.086 28.1807 160.948 28.1807C159.81 28.1807 158.852 28.5885 158.074 29.4041C157.315 30.2007 156.936 31.3483 156.936 32.8467C156.936 34.3452 157.306 35.5022 158.046 36.3178C158.804 37.1145 159.753 37.5128 160.891 37.5128ZM176.73 25.4493C175.914 25.9235 175.25 26.5779 174.738 27.4125V24.9657H170.755V40.7278H174.738V32.8752C174.738 31.4147 175.051 30.3904 175.677 29.8024C176.322 29.2144 177.27 28.9204 178.522 28.9204H179.575V24.738C178.513 24.738 177.564 24.9751 176.73 25.4493ZM189.712 24.738C191.59 24.738 193.107 25.3355 194.264 26.5305C195.421 27.7065 196 29.3567 196 31.4811V40.7278H192.017V32.0216C192.017 30.7698 191.704 29.8119 191.078 29.148C190.452 28.4652 189.598 28.1238 188.517 28.1238C187.417 28.1238 186.544 28.4652 185.9 29.148C185.274 29.8119 184.961 30.7698 184.961 32.0216V40.7278H180.977V24.9657H184.961V26.9288C185.492 26.246 186.165 25.7149 186.981 25.3355C187.815 24.9372 188.726 24.738 189.712 24.738ZM69.099 50.408V47.193H56.8363V67.0522H60.8196V58.659H67.1643V55.5008H60.8196V50.408H69.099ZM72.6632 49.4122C71.9614 49.4122 71.3734 49.1941 70.8992 48.7578C70.444 48.3026 70.2164 47.743 70.2164 47.0792C70.2164 46.4153 70.444 45.8652 70.8992 45.429C71.3734 44.9738 71.9614 44.7461 72.6632 44.7461C73.365 44.7461 73.9435 44.9738 74.3987 45.429C74.8729 45.8652 75.11 46.4153 75.11 47.0792C75.11 47.743 74.8729 48.3026 74.3987 48.7578C73.9435 49.1941 73.365 49.4122 72.6632 49.4122ZM74.6263 51.29V67.0522H70.6431V51.29H74.6263ZM90.5683 52.8548C89.4113 51.6599 87.8939 51.0624 86.0161 51.0624C85.0298 51.0624 84.1193 51.2616 83.2847 51.6599C82.4691 52.0392 81.7958 52.5703 81.2647 53.2532V51.29H77.2815V67.0522H81.2647V58.346C81.2647 57.0941 81.5776 56.1363 82.2036 55.4724C82.8485 54.7895 83.721 54.4481 84.8211 54.4481C85.9023 54.4481 86.7558 54.7895 87.3818 55.4724C88.0077 56.1363 88.3207 57.0941 88.3207 58.346V67.0522H92.3039V57.8054C92.3039 55.681 91.7254 54.0308 90.5683 52.8548ZM93.7871 59.1142C93.7871 57.5209 94.1001 56.1078 94.726 54.8749C95.3709 53.642 96.234 52.6936 97.3151 52.0297C98.4153 51.3659 99.6387 51.0339 100.985 51.0339C102.161 51.0339 103.186 51.271 104.058 51.7452C104.95 52.2194 105.661 52.8169 106.192 53.5377V51.29H110.204V67.0522H106.192V64.7476C105.68 65.4873 104.969 66.1038 104.058 66.5969C103.167 67.0711 102.133 67.3082 100.957 67.3082C99.6292 67.3082 98.4153 66.9668 97.3151 66.284C96.234 65.6011 95.3709 64.6433 94.726 63.4104C94.1001 62.1585 93.7871 60.7264 93.7871 59.1142ZM106.192 59.1711C106.192 58.2037 106.002 57.3786 105.623 56.6958C105.244 55.994 104.732 55.4629 104.087 55.1025C103.442 54.7232 102.749 54.5335 102.01 54.5335C101.27 54.5335 100.587 54.7137 99.9611 55.0741C99.3352 55.4344 98.8231 55.9655 98.4248 56.6673C98.0454 57.3502 97.8557 58.1658 97.8557 59.1142C97.8557 60.0626 98.0454 60.8971 98.4248 61.6179C98.8231 62.3197 99.3352 62.8603 99.9611 63.2397C100.606 63.619 101.289 63.8087 102.01 63.8087C102.749 63.8087 103.442 63.6285 104.087 63.2681C104.732 62.8888 105.244 62.3577 105.623 61.6748C106.002 60.973 106.192 60.1384 106.192 59.1711ZM126.101 52.8548C124.944 51.6599 123.426 51.0624 121.548 51.0624C120.562 51.0624 119.652 51.2616 118.817 51.6599C118.001 52.0392 117.328 52.5703 116.797 53.2532V51.29H112.814V67.0522H116.797V58.346C116.797 57.0941 117.11 56.1363 117.736 55.4724C118.381 54.7895 119.253 54.4481 120.353 54.4481C121.435 54.4481 122.288 54.7895 122.914 55.4724C123.54 56.1363 123.853 57.0941 123.853 58.346V67.0522H127.836V57.8054C127.836 55.681 127.258 54.0308 126.101 52.8548ZM129.319 59.1711C129.319 57.5399 129.651 56.1173 130.315 54.9034C130.979 53.6704 131.899 52.7221 133.075 52.0582C134.251 51.3754 135.598 51.0339 137.115 51.0339C139.069 51.0339 140.681 51.5271 141.952 52.5134C143.242 53.4808 144.105 54.8464 144.541 56.6104H140.245C140.017 55.9276 139.628 55.3965 139.078 55.0172C138.547 54.6188 137.883 54.4197 137.087 54.4197C135.949 54.4197 135.048 54.837 134.384 55.6715C133.72 56.4872 133.388 57.6537 133.388 59.1711C133.388 60.6695 133.72 61.836 134.384 62.6706C135.048 63.4862 135.949 63.894 137.087 63.894C138.699 63.894 139.752 63.1733 140.245 61.7317H144.541C144.105 63.4388 143.242 64.795 141.952 65.8003C140.662 66.8056 139.05 67.3082 137.115 67.3082C135.598 67.3082 134.251 66.9763 133.075 66.3124C131.899 65.6296 130.979 64.6812 130.315 63.4673C129.651 62.2344 129.319 60.8023 129.319 59.1711ZM160.717 60.366C160.793 59.9108 160.831 59.3987 160.831 58.8297C160.831 57.2933 160.499 55.9371 159.835 54.7611C159.191 53.5661 158.271 52.6462 157.076 52.0013C155.9 51.3564 154.562 51.0339 153.064 51.0339C151.509 51.0339 150.133 51.3659 148.938 52.0297C147.744 52.6936 146.814 53.642 146.15 54.8749C145.486 56.1078 145.154 57.5399 145.154 59.1711C145.154 60.7833 145.486 62.2059 146.15 63.4388C146.833 64.6717 147.772 65.6296 148.967 66.3124C150.181 66.9763 151.547 67.3082 153.064 67.3082C154.942 67.3082 156.526 66.8246 157.815 65.8572C159.105 64.8709 159.978 63.619 160.433 62.1016H156.137C155.511 63.3724 154.458 64.0078 152.979 64.0078C151.954 64.0078 151.091 63.6854 150.39 63.0405C149.688 62.3956 149.289 61.5041 149.195 60.366H160.717ZM155.596 55.2448C156.317 55.8517 156.687 56.6673 156.706 57.6916H149.223C149.375 56.6294 149.783 55.8043 150.446 55.2163C151.129 54.6094 151.964 54.3059 152.95 54.3059C153.993 54.3059 154.875 54.6188 155.596 55.2448Z"
        fill="black"/>
  <rect x="170" y="52" width="45" height="15" rx="7.5" fill="url(#paint0_linear)"/>
  <path
    d="M181.473 61.803H178.971L178.557 63H177.234L179.493 56.709H180.96L183.219 63H181.887L181.473 61.803ZM181.131 60.795L180.222 58.167L179.313 60.795H181.131Z"
    fill="white"/>
  <path
    d="M186.529 56.718C187.189 56.718 187.768 56.847 188.266 57.105C188.77 57.363 189.157 57.732 189.427 58.212C189.703 58.686 189.841 59.238 189.841 59.868C189.841 60.498 189.703 61.05 189.427 61.524C189.157 61.992 188.77 62.355 188.266 62.613C187.768 62.871 187.189 63 186.529 63H184.333V56.718H186.529ZM186.484 61.929C187.144 61.929 187.654 61.749 188.014 61.389C188.374 61.029 188.554 60.522 188.554 59.868C188.554 59.214 188.374 58.704 188.014 58.338C187.654 57.966 187.144 57.78 186.484 57.78H185.593V61.929H186.484Z"
    fill="white"/>
  <path
    d="M197.903 56.718V63H196.643V58.914L194.96 63H194.006L192.314 58.914V63H191.054V56.718H192.485L194.483 61.389L196.481 56.718H197.903Z"
    fill="white"/>
  <path d="M200.679 56.718V63H199.419V56.718H200.679Z" fill="white"/>
  <path
    d="M207.567 63H206.307L203.454 58.689V63H202.194V56.709H203.454L206.307 61.029V56.709H207.567V63Z"
    fill="white"/>
  <defs>
    <linearGradient id="paint0_linear" x1="224" y1="60" x2="193.511" y2="90.9958"
                    gradientUnits="userSpaceOnUse">
      <stop offset="0.00303697" stop-color="#AA29EC"/>
      <stop offset="0.364942" stop-color="#F2578B"/>
      <stop offset="0.697929" stop-color="#F66E75"/>
      <stop offset="0.991164" stop-color="#FFA609"/>
    </linearGradient>
  </defs>
</svg>
