<?xml version="1.0" encoding="UTF-8"?>
<svg width="127px" height="50px" viewBox="0 0 127 50" version="1.1" xmlns="http://www.w3.org/2000/svg" xmlns:xlink="http://www.w3.org/1999/xlink">
    <!-- Generator: Sketch 43.2 (39069) - http://www.bohemiancoding.com/sketch -->
    <title>uf-logo</title>
    <desc>Created with Sketch.</desc>
    <defs></defs>
    <g id="Page-1" stroke="none" stroke-width="1" fill="none" fill-rule="evenodd">
        <g id="uf-logo" fill="#000000">
            <path d="M38.438,5.0879 C37.737,5.0879 37.149,4.8697 36.674,4.4335 C36.219,3.9782 35.992,3.4187 35.992,2.7548 C35.992,2.091 36.219,1.5409 36.674,1.1046 C37.149,0.6494 37.737,0.4218 38.438,0.4218 C39.14,0.4218 39.719,0.6494 40.174,1.1046 C40.648,1.5409 40.885,2.091 40.885,2.7548 C40.885,3.4187 40.648,3.9782 40.174,4.4335 C39.719,4.8697 39.14,5.0879 38.438,5.0879 Z M40.402,6.9657 L40.402,22.7278 L36.418,22.7278 L36.418,6.9657 L40.402,6.9657 Z M4.2567,15.1597 L4.2567,2.8686 L0.2735,2.8686 L0.2735,15.1313 C0.2735,16.8194 0.6244,18.2514 1.3262,19.4274 C2.028,20.5845 2.9764,21.457 4.1714,22.045 C5.385,22.633 6.732,22.927 8.212,22.927 C9.71,22.927 11.066,22.633 12.28,22.045 C13.513,21.457 14.49,20.5845 15.211,19.4274 C15.95,18.2514 16.32,16.8194 16.32,15.1313 L16.32,2.8686 L12.309,2.8686 L12.309,15.1597 C12.309,16.5064 11.958,17.5402 11.256,18.2609 C10.554,18.9627 9.558,19.3136 8.268,19.3136 C6.998,19.3136 6.011,18.9627 5.309,18.2609 C4.6076,17.5402 4.2567,16.5064 4.2567,15.1597 Z M32.175,8.5305 C31.018,7.3355 29.501,6.738 27.623,6.738 C26.637,6.738 25.726,6.9372 24.892,7.3355 C24.076,7.7149 23.403,8.246 22.872,8.9288 L22.872,6.9657 L18.888,6.9657 L18.888,22.7278 L22.872,22.7278 L22.872,14.0216 C22.872,12.7698 23.185,11.8119 23.811,11.148 C24.455,10.4652 25.328,10.1238 26.428,10.1238 C27.509,10.1238 28.363,10.4652 28.989,11.148 C29.615,11.8119 29.928,12.7698 29.928,14.0216 L29.928,22.7278 L33.911,22.7278 L33.911,13.4811 C33.911,11.3567 33.332,9.7065 32.175,8.5305 Z M43.028,10.579 C42.364,11.7929 42.032,13.2155 42.032,14.8467 C42.032,16.478 42.364,17.91 43.028,19.1429 C43.692,20.3569 44.612,21.3052 45.788,21.9881 C46.964,22.652 48.311,22.9839 49.828,22.9839 C51.763,22.9839 53.375,22.4812 54.665,21.476 C55.955,20.4707 56.818,19.1145 57.254,17.4074 L52.958,17.4074 C52.465,18.8489 51.412,19.5697 49.8,19.5697 C48.662,19.5697 47.761,19.1619 47.097,18.3463 C46.433,17.5117 46.101,16.3452 46.101,14.8467 C46.101,13.3293 46.433,12.1628 47.097,11.3472 C47.761,10.5126 48.662,10.0953 49.8,10.0953 C50.596,10.0953 51.26,10.2945 51.791,10.6928 C52.341,11.0722 52.73,11.6033 52.958,12.2861 L57.254,12.2861 C56.818,10.5221 55.955,9.1564 54.665,8.1891 C53.394,7.2028 51.782,6.7096 49.828,6.7096 C48.311,6.7096 46.964,7.051 45.788,7.7338 C44.612,8.3977 43.692,9.3461 43.028,10.579 Z M65.891,22.9839 C64.373,22.9839 63.008,22.652 61.794,21.9881 C60.58,21.3052 59.622,20.3474 58.92,19.1145 C58.237,17.8816 57.896,16.459 57.896,14.8467 C57.896,13.2345 58.247,11.8119 58.949,10.579 C59.669,9.3461 60.646,8.3977 61.879,7.7338 C63.112,7.051 64.487,6.7096 66.005,6.7096 C67.522,6.7096 68.897,7.051 70.13,7.7338 C71.363,8.3977 72.33,9.3461 73.032,10.579 C73.753,11.8119 74.113,13.2345 74.113,14.8467 C74.113,16.459 73.743,17.8816 73.004,19.1145 C72.283,20.3474 71.297,21.3052 70.045,21.9881 C68.812,22.652 67.427,22.9839 65.891,22.9839 Z M65.891,19.5128 C66.612,19.5128 67.285,19.3421 67.911,19.0007 C68.556,18.6403 69.068,18.1092 69.447,17.4074 C69.827,16.7056 70.016,15.852 70.016,14.8467 C70.016,13.3483 69.618,12.2007 68.821,11.4041 C68.044,10.5885 67.086,10.1807 65.948,10.1807 C64.81,10.1807 63.852,10.5885 63.074,11.4041 C62.315,12.2007 61.936,13.3483 61.936,14.8467 C61.936,16.3452 62.306,17.5022 63.046,18.3178 C63.804,19.1145 64.753,19.5128 65.891,19.5128 Z M81.73,7.4493 C80.914,7.9235 80.25,8.5779 79.738,9.4125 L79.738,6.9657 L75.755,6.9657 L75.755,22.7278 L79.738,22.7278 L79.738,14.8752 C79.738,13.4147 80.051,12.3904 80.677,11.8024 C81.322,11.2144 82.27,10.9204 83.522,10.9204 L84.575,10.9204 L84.575,6.738 C83.513,6.738 82.564,6.9751 81.73,7.4493 Z M94.712,6.738 C96.59,6.738 98.107,7.3355 99.264,8.5305 C100.421,9.7065 101,11.3567 101,13.4811 L101,22.7278 L97.017,22.7278 L97.017,14.0216 C97.017,12.7698 96.704,11.8119 96.078,11.148 C95.452,10.4652 94.598,10.1238 93.517,10.1238 C92.417,10.1238 91.544,10.4652 90.9,11.148 C90.274,11.8119 89.961,12.7698 89.961,14.0216 L89.961,22.7278 L85.977,22.7278 L85.977,6.9657 L89.961,6.9657 L89.961,8.9288 C90.492,8.246 91.165,7.7149 91.981,7.3355 C92.815,6.9372 93.726,6.738 94.712,6.738 Z M35.099,32.408 L35.099,29.193 L22.8363,29.193 L22.8363,49.0522 L26.8196,49.0522 L26.8196,40.659 L33.1643,40.659 L33.1643,37.5008 L26.8196,37.5008 L26.8196,32.408 L35.099,32.408 Z M38.6632,31.4122 C37.9614,31.4122 37.3734,31.1941 36.8992,30.7578 C36.444,30.3026 36.2164,29.743 36.2164,29.0792 C36.2164,28.4153 36.444,27.8652 36.8992,27.429 C37.3734,26.9738 37.9614,26.7461 38.6632,26.7461 C39.365,26.7461 39.9435,26.9738 40.3987,27.429 C40.8729,27.8652 41.11,28.4153 41.11,29.0792 C41.11,29.743 40.8729,30.3026 40.3987,30.7578 C39.9435,31.1941 39.365,31.4122 38.6632,31.4122 Z M40.6263,33.29 L40.6263,49.0522 L36.6431,49.0522 L36.6431,33.29 L40.6263,33.29 Z M56.5683,34.8548 C55.4113,33.6599 53.8939,33.0624 52.0161,33.0624 C51.0298,33.0624 50.1193,33.2616 49.2847,33.6599 C48.4691,34.0392 47.7958,34.5703 47.2647,35.2532 L47.2647,33.29 L43.2815,33.29 L43.2815,49.0522 L47.2647,49.0522 L47.2647,40.346 C47.2647,39.0941 47.5776,38.1363 48.2036,37.4724 C48.8485,36.7895 49.721,36.4481 50.8211,36.4481 C51.9023,36.4481 52.7558,36.7895 53.3818,37.4724 C54.0077,38.1363 54.3207,39.0941 54.3207,40.346 L54.3207,49.0522 L58.3039,49.0522 L58.3039,39.8054 C58.3039,37.681 57.7254,36.0308 56.5683,34.8548 Z M59.7871,41.1142 C59.7871,39.5209 60.1001,38.1078 60.726,36.8749 C61.3709,35.642 62.234,34.6936 63.3151,34.0297 C64.4153,33.3659 65.6387,33.0339 66.985,33.0339 C68.161,33.0339 69.186,33.271 70.058,33.7452 C70.95,34.2194 71.661,34.8169 72.192,35.5377 L72.192,33.29 L76.204,33.29 L76.204,49.0522 L72.192,49.0522 L72.192,46.7476 C71.68,47.4873 70.969,48.1038 70.058,48.5969 C69.167,49.0711 68.133,49.3082 66.957,49.3082 C65.6292,49.3082 64.4153,48.9668 63.3151,48.284 C62.234,47.6011 61.3709,46.6433 60.726,45.4104 C60.1001,44.1585 59.7871,42.7264 59.7871,41.1142 Z M72.192,41.1711 C72.192,40.2037 72.002,39.3786 71.623,38.6958 C71.244,37.994 70.732,37.4629 70.087,37.1025 C69.442,36.7232 68.749,36.5335 68.01,36.5335 C67.27,36.5335 66.587,36.7137 65.9611,37.0741 C65.3352,37.4344 64.8231,37.9655 64.4248,38.6673 C64.0454,39.3502 63.8557,40.1658 63.8557,41.1142 C63.8557,42.0626 64.0454,42.8971 64.4248,43.6179 C64.8231,44.3197 65.3352,44.8603 65.9611,45.2397 C66.606,45.619 67.289,45.8087 68.01,45.8087 C68.749,45.8087 69.442,45.6285 70.087,45.2681 C70.732,44.8888 71.244,44.3577 71.623,43.6748 C72.002,42.973 72.192,42.1384 72.192,41.1711 Z M92.101,34.8548 C90.944,33.6599 89.426,33.0624 87.548,33.0624 C86.562,33.0624 85.652,33.2616 84.817,33.6599 C84.001,34.0392 83.328,34.5703 82.797,35.2532 L82.797,33.29 L78.814,33.29 L78.814,49.0522 L82.797,49.0522 L82.797,40.346 C82.797,39.0941 83.11,38.1363 83.736,37.4724 C84.381,36.7895 85.253,36.4481 86.353,36.4481 C87.435,36.4481 88.288,36.7895 88.914,37.4724 C89.54,38.1363 89.853,39.0941 89.853,40.346 L89.853,49.0522 L93.836,49.0522 L93.836,39.8054 C93.836,37.681 93.258,36.0308 92.101,34.8548 Z M95.319,41.1711 C95.319,39.5399 95.651,38.1173 96.315,36.9034 C96.979,35.6704 97.899,34.7221 99.075,34.0582 C100.251,33.3754 101.598,33.0339 103.115,33.0339 C105.069,33.0339 106.681,33.5271 107.952,34.5134 C109.242,35.4808 110.105,36.8464 110.541,38.6104 L106.245,38.6104 C106.017,37.9276 105.628,37.3965 105.078,37.0172 C104.547,36.6188 103.883,36.4197 103.087,36.4197 C101.949,36.4197 101.048,36.837 100.384,37.6715 C99.72,38.4872 99.388,39.6537 99.388,41.1711 C99.388,42.6695 99.72,43.836 100.384,44.6706 C101.048,45.4862 101.949,45.894 103.087,45.894 C104.699,45.894 105.752,45.1733 106.245,43.7317 L110.541,43.7317 C110.105,45.4388 109.242,46.795 107.952,47.8003 C106.662,48.8056 105.05,49.3082 103.115,49.3082 C101.598,49.3082 100.251,48.9763 99.075,48.3124 C97.899,47.6296 96.979,46.6812 96.315,45.4673 C95.651,44.2344 95.319,42.8023 95.319,41.1711 Z M126.717,42.366 C126.793,41.9108 126.831,41.3987 126.831,40.8297 C126.831,39.2933 126.499,37.9371 125.835,36.7611 C125.191,35.5661 124.271,34.6462 123.076,34.0013 C121.9,33.3564 120.562,33.0339 119.064,33.0339 C117.509,33.0339 116.133,33.3659 114.938,34.0297 C113.744,34.6936 112.814,35.642 112.15,36.8749 C111.486,38.1078 111.154,39.5399 111.154,41.1711 C111.154,42.7833 111.486,44.2059 112.15,45.4388 C112.833,46.6717 113.772,47.6296 114.967,48.3124 C116.181,48.9763 117.547,49.3082 119.064,49.3082 C120.942,49.3082 122.526,48.8246 123.815,47.8572 C125.105,46.8709 125.978,45.619 126.433,44.1016 L122.137,44.1016 C121.511,45.3724 120.458,46.0078 118.979,46.0078 C117.954,46.0078 117.091,45.6854 116.39,45.0405 C115.688,44.3956 115.289,43.5041 115.195,42.366 L126.717,42.366 Z M121.596,37.2448 C122.317,37.8517 122.687,38.6673 122.706,39.6916 L115.223,39.6916 C115.375,38.6294 115.783,37.8043 116.446,37.2163 C117.129,36.6094 117.964,36.3059 118.95,36.3059 C119.993,36.3059 120.875,36.6188 121.596,37.2448 Z" id="Shape"></path>
        </g>
    </g>
</svg>