<?xml version="1.0" standalone="no"?>
<!DOCTYPE svg PUBLIC "-//W3C//DTD SVG 20010904//EN"
 "http://www.w3.org/TR/2001/REC-SVG-20010904/DTD/svg10.dtd">
<svg version="1.0" xmlns="http://www.w3.org/2000/svg"
 width="900.000000pt" height="900.000000pt" viewBox="0 0 900.000000 900.000000"
 preserveAspectRatio="xMidYMid meet">
<metadata>
Created by potrace 1.14, written by Peter Selinger 2001-2017
</metadata>
<g transform="translate(0.000000,900.000000) scale(0.100000,-0.100000)"
fill="#000000" stroke="none">
<path d="M3315 4626 c-56 -25 -95 -85 -95 -143 0 -15 9 -46 21 -69 22 -47 82
-84 134 -84 54 0 112 37 136 86 35 74 16 146 -53 197 -33 25 -104 31 -143 13z"/>
<path d="M4595 4476 c-56 -25 -95 -85 -95 -143 0 -15 9 -46 21 -69 22 -47 82
-84 134 -84 54 0 112 37 136 86 35 74 16 146 -53 197 -33 25 -104 31 -143 13z"/>
<path d="M3983 2293 c2 -5 52 -91 110 -193 l106 -185 -190 -640 -189 -639 197
-198 c109 -109 202 -198 208 -198 6 0 97 87 204 194 179 179 193 196 188 223
-3 16 -87 304 -187 641 l-181 613 108 187 c59 102 110 189 111 194 2 4 -107 8
-243 8 -135 0 -244 -3 -242 -7z"/>
</g>
</svg>
